<svg width="20" height="20" viewBox="0 0 20 20" fill="none" xmlns="http://www.w3.org/2000/svg">
<rect x="20" y="20" width="20" height="20" rx="3" transform="rotate(-180 20 20)" fill="#F4F4F4"/>
<path d="M8.05227 6.76849C8.01882 6.73094 8 6.67983 8 6.62651C8 6.57319 8.01882 6.52208 8.05227 6.48453L8.4269 6.0606C8.45897 6.02193 8.50374 6 8.5506 6C8.59746 6 8.64223 6.02193 8.67429 6.0606L11.9222 9.73604C11.972 9.79224 11.9999 9.86848 12 9.94801L12 10.052C11.9999 10.1315 11.972 10.2078 11.9222 10.264L8.67429 13.9394C8.64223 13.9781 8.59745 14 8.5506 14C8.50374 14 8.45896 13.9781 8.4269 13.9394L8.05227 13.5155C8.01882 13.4779 8 13.4268 8 13.3735C8 13.3202 8.01882 13.2691 8.05227 13.2315L10.9079 10L8.05227 6.76849Z" fill="#474747"/>
</svg>
