<svg width="210" height="59" viewBox="0 0 210 59" fill="none" xmlns="http://www.w3.org/2000/svg">
<path fill-rule="evenodd" clip-rule="evenodd" d="M29.1197 0C5.13964 0 0 5.13964 0 29.1197C0 53.0999 5.13964 58.2395 29.1197 58.2395C53.0999 58.2395 58.2395 53.0999 58.2395 29.1197C58.2395 5.13964 53.0999 0 29.1197 0ZM21.4322 18.5149V38.3066H30.6881C34.5048 38.3066 37.3897 35.8476 37.3897 32.429C37.3897 31.0787 36.9571 29.9599 36.1732 29.0977C35.6342 28.5048 34.929 28.0332 34.084 27.6911C34.6632 27.0488 35.0281 26.2997 35.1894 25.4436C35.2541 25.1004 35.2861 24.74 35.2861 24.3624C35.2861 20.9139 32.4011 18.5149 28.5845 18.5149H21.4322ZM38.5542 28.0705C38.2212 27.6039 37.8387 27.1881 37.4172 26.821C37.6706 26.0399 37.7904 25.2143 37.7904 24.3624C37.7904 19.1985 33.4225 16.0159 28.5845 16.0159H18.9278V40.8055H30.6881C35.5532 40.8055 39.8941 37.5395 39.8941 32.429C39.8941 30.8209 39.4521 29.3282 38.5542 28.0705ZM28.2539 26.3416C28.4852 26.3416 28.6994 26.3173 28.8951 26.2709C29.7416 26.07 30.2374 25.4549 30.2374 24.6024C30.2374 23.7497 29.7416 23.1346 28.8951 22.9338C28.6994 22.8874 28.4852 22.8631 28.2539 22.8631H26.3907V26.3416H28.2539ZM30.4955 31.4506C30.4966 31.4503 30.4971 31.4501 30.497 31.4501C30.4969 31.45 30.4947 31.4503 30.4907 31.4512C30.4894 31.4515 30.4878 31.4519 30.4861 31.4523C30.4907 31.4516 30.4938 31.451 30.4955 31.4506ZM30.4861 32.986C30.4937 32.9872 30.4972 32.988 30.497 32.9882C30.4968 32.9883 30.4931 32.9877 30.4861 32.986ZM32.341 32.2192C32.341 33.3887 31.5897 33.9584 30.3576 33.9584H26.3907V30.4799H30.3576C31.5897 30.4799 32.341 31.0496 32.341 32.2192Z" fill="black"/>
<path d="M75.0337 39H81.186C82.0649 39 82.8787 38.8901 83.6274 38.6704C84.3843 38.4425 85.0353 38.1089 85.5806 37.6694C86.1258 37.2381 86.5531 36.701 86.8623 36.0581C87.1715 35.4152 87.3221 34.6706 87.314 33.8242C87.314 33.3441 87.2448 32.8883 87.1064 32.457C86.9762 32.0176 86.7809 31.6188 86.5205 31.2607C86.2682 30.9271 85.9549 30.63 85.5806 30.3696C85.2062 30.1011 84.7546 29.8976 84.2256 29.7593V29.7349C84.5837 29.5884 84.897 29.4256 85.1655 29.2466C85.4422 29.0594 85.6904 28.8438 85.9102 28.5996C86.2194 28.266 86.4554 27.8835 86.6182 27.4521C86.7891 27.0127 86.8786 26.5407 86.8867 26.0361C86.8867 25.2061 86.728 24.4899 86.4106 23.8877C86.1014 23.2773 85.6701 22.7769 85.1167 22.3862C84.5633 21.9956 83.9082 21.7067 83.1514 21.5195C82.3945 21.3242 81.5848 21.2266 80.7222 21.2266H75.0337V39ZM77.9878 30.9678H81.3569C81.8371 30.9759 82.2643 31.0492 82.6387 31.1875C83.013 31.3177 83.3304 31.5049 83.5908 31.749C83.8512 31.9932 84.0465 32.2902 84.1768 32.6401C84.307 32.9819 84.3721 33.3766 84.3721 33.8242C84.3721 34.2474 84.2907 34.634 84.1279 34.9839C83.9733 35.3257 83.7495 35.6146 83.4565 35.8506C83.188 36.0785 82.8625 36.2575 82.48 36.3877C82.0975 36.5179 81.6743 36.583 81.2104 36.583H77.9878V30.9678ZM77.9878 28.7339V23.6558H80.7588C81.2633 23.6639 81.7231 23.7249 82.1382 23.8389C82.5532 23.9447 82.8991 24.1196 83.1758 24.3638C83.4199 24.5591 83.6071 24.8114 83.7373 25.1206C83.8757 25.4217 83.9448 25.7798 83.9448 26.1948C83.9448 26.5854 83.8716 26.9313 83.7251 27.2324C83.5786 27.5335 83.3792 27.7899 83.127 28.0015C82.8503 28.2375 82.5085 28.4165 82.1016 28.5386C81.7028 28.6606 81.2633 28.7257 80.7832 28.7339H77.9878ZM89.6089 32.2739V32.5303C89.6089 33.4987 89.7472 34.3898 90.0239 35.2036C90.3006 36.0174 90.7035 36.7254 91.2324 37.3276C91.7533 37.9299 92.3962 38.4019 93.1611 38.7437C93.9261 39.0854 94.7928 39.2563 95.7612 39.2563C96.7215 39.2563 97.5801 39.0854 98.3369 38.7437C99.1019 38.4019 99.7448 37.9299 100.266 37.3276C100.786 36.7254 101.185 36.0174 101.462 35.2036C101.739 34.3898 101.877 33.4987 101.877 32.5303V32.2739C101.877 31.3136 101.739 30.4266 101.462 29.6128C101.185 28.7909 100.786 28.0788 100.266 27.4766C99.7367 26.8743 99.0897 26.4023 98.3247 26.0605C97.5679 25.7188 96.7052 25.5479 95.7368 25.5479C94.7684 25.5479 93.9058 25.7188 93.1489 26.0605C92.3921 26.4023 91.7533 26.8743 91.2324 27.4766C90.7035 28.0788 90.3006 28.7909 90.0239 29.6128C89.7472 30.4266 89.6089 31.3136 89.6089 32.2739ZM92.5264 32.5303V32.2739C92.5264 31.6961 92.5874 31.1427 92.7095 30.6138C92.8397 30.0848 93.035 29.6209 93.2954 29.2222C93.564 28.8234 93.8976 28.506 94.2964 28.27C94.7033 28.034 95.1834 27.916 95.7368 27.916C96.2983 27.916 96.7785 28.034 97.1772 28.27C97.5841 28.506 97.9178 28.8234 98.1782 29.2222C98.4386 29.6209 98.634 30.0848 98.7642 30.6138C98.8944 31.1427 98.9595 31.6961 98.9595 32.2739V32.5303C98.9595 33.1243 98.8944 33.6859 98.7642 34.2148C98.6421 34.7438 98.4508 35.2077 98.1904 35.6064C97.93 36.0052 97.5964 36.3226 97.1895 36.5586C96.7826 36.7865 96.3065 36.9004 95.7612 36.9004C95.1997 36.9004 94.7155 36.7865 94.3086 36.5586C93.9017 36.3226 93.564 36.0052 93.2954 35.6064C93.035 35.2077 92.8397 34.7438 92.7095 34.2148C92.5874 33.6859 92.5264 33.1243 92.5264 32.5303ZM116.77 32.5303V32.2739C116.77 31.5252 116.7 30.8172 116.562 30.1499C116.432 29.4826 116.236 28.8763 115.976 28.3311C115.781 27.9404 115.553 27.5824 115.292 27.2568C115.04 26.9232 114.751 26.6424 114.426 26.4146C114.043 26.1379 113.612 25.9263 113.132 25.7798C112.66 25.6252 112.139 25.5479 111.569 25.5479C111.138 25.5479 110.735 25.5926 110.361 25.6821C109.995 25.7635 109.657 25.8896 109.348 26.0605C109.112 26.1908 108.892 26.3413 108.688 26.5122C108.485 26.6831 108.298 26.8743 108.127 27.0859V20.25H105.209V39H107.846L107.98 37.5596C108.127 37.7386 108.278 37.9054 108.432 38.0601C108.595 38.2065 108.766 38.3449 108.945 38.4751C109.295 38.7274 109.689 38.9186 110.129 39.0488C110.568 39.179 111.057 39.2441 111.594 39.2441C112.123 39.2441 112.611 39.175 113.059 39.0366C113.514 38.9064 113.925 38.7192 114.292 38.4751C114.747 38.174 115.138 37.7956 115.463 37.3398C115.789 36.8841 116.049 36.3755 116.245 35.814C116.416 35.342 116.546 34.8293 116.635 34.2759C116.725 33.7225 116.77 33.1406 116.77 32.5303ZM113.852 32.2739V32.5303C113.852 32.8965 113.832 33.2505 113.791 33.5923C113.75 33.9341 113.689 34.2515 113.608 34.5444C113.51 34.9351 113.368 35.2891 113.181 35.6064C113.002 35.9157 112.77 36.172 112.485 36.3755C112.273 36.522 112.033 36.64 111.765 36.7295C111.496 36.8109 111.195 36.8516 110.861 36.8516C110.495 36.8516 110.161 36.8068 109.86 36.7173C109.567 36.6196 109.307 36.4894 109.079 36.3267C108.876 36.172 108.693 35.9971 108.53 35.8018C108.375 35.5983 108.241 35.3745 108.127 35.1304V29.6616C108.225 29.45 108.339 29.2547 108.469 29.0757C108.607 28.8885 108.762 28.7257 108.933 28.5874C109.169 28.384 109.445 28.2293 109.763 28.1235C110.08 28.0096 110.438 27.9526 110.837 27.9526C111.162 27.9526 111.455 27.9893 111.716 28.0625C111.976 28.1357 112.208 28.2456 112.412 28.3921C112.721 28.6037 112.965 28.8641 113.144 29.1733C113.331 29.4744 113.482 29.8122 113.596 30.1865C113.677 30.4958 113.738 30.8294 113.779 31.1875C113.828 31.5374 113.852 31.8996 113.852 32.2739ZM128.83 39H131.479V25.792H128.549V35.1426C128.435 35.3867 128.297 35.6105 128.134 35.814C127.972 36.0093 127.784 36.1802 127.573 36.3267C127.32 36.4894 127.028 36.6196 126.694 36.7173C126.36 36.8068 125.982 36.8516 125.559 36.8516C125.152 36.8516 124.798 36.7987 124.497 36.6929C124.195 36.5871 123.947 36.408 123.752 36.1558C123.557 35.9116 123.414 35.5861 123.325 35.1792C123.235 34.7642 123.19 34.2515 123.19 33.6411V25.792H120.273V33.6167C120.273 34.6095 120.383 35.464 120.603 36.1802C120.822 36.8882 121.132 37.4701 121.53 37.9258C121.937 38.3815 122.421 38.7192 122.983 38.939C123.553 39.1506 124.183 39.2563 124.875 39.2563C125.664 39.2563 126.381 39.0732 127.023 38.707C127.666 38.3327 128.212 37.8159 128.659 37.1567L128.83 39ZM144.321 25.5479C143.409 25.5479 142.575 25.7594 141.818 26.1826C141.07 26.6058 140.427 27.1877 139.89 27.9282L139.877 27.623L139.755 25.792H137.021V39H139.938V30.8457C140.093 30.4551 140.284 30.1092 140.512 29.8081C140.74 29.507 141.017 29.2588 141.342 29.0635C141.643 28.86 141.989 28.7095 142.38 28.6118C142.771 28.5142 143.21 28.4653 143.698 28.4653C144.13 28.4653 144.561 28.4897 144.992 28.5386C145.432 28.5874 145.875 28.6606 146.323 28.7583L146.738 25.8774C146.486 25.7879 146.136 25.7106 145.688 25.6455C145.249 25.5804 144.793 25.5479 144.321 25.5479ZM150.107 39H156.259C157.138 39 157.952 38.8901 158.701 38.6704C159.458 38.4425 160.109 38.1089 160.654 37.6694C161.199 37.2381 161.626 36.701 161.936 36.0581C162.245 35.4152 162.395 34.6706 162.387 33.8242C162.387 33.3441 162.318 32.8883 162.18 32.457C162.049 32.0176 161.854 31.6188 161.594 31.2607C161.341 30.9271 161.028 30.63 160.654 30.3696C160.279 30.1011 159.828 29.8976 159.299 29.7593V29.7349C159.657 29.5884 159.97 29.4256 160.239 29.2466C160.515 29.0594 160.764 28.8438 160.983 28.5996C161.293 28.266 161.529 27.8835 161.691 27.4521C161.862 27.0127 161.952 26.5407 161.96 26.0361C161.96 25.2061 161.801 24.4899 161.484 23.8877C161.175 23.2773 160.743 22.7769 160.19 22.3862C159.637 21.9956 158.981 21.7067 158.225 21.5195C157.468 21.3242 156.658 21.2266 155.795 21.2266H150.107V39ZM153.061 30.9678H156.43C156.91 30.9759 157.338 31.0492 157.712 31.1875C158.086 31.3177 158.404 31.5049 158.664 31.749C158.924 31.9932 159.12 32.2902 159.25 32.6401C159.38 32.9819 159.445 33.3766 159.445 33.8242C159.445 34.2474 159.364 34.634 159.201 34.9839C159.047 35.3257 158.823 35.6146 158.53 35.8506C158.261 36.0785 157.936 36.2575 157.553 36.3877C157.171 36.5179 156.748 36.583 156.284 36.583H153.061V30.9678ZM153.061 28.7339V23.6558H155.832C156.337 23.6639 156.796 23.7249 157.211 23.8389C157.626 23.9447 157.972 24.1196 158.249 24.3638C158.493 24.5591 158.68 24.8114 158.811 25.1206C158.949 25.4217 159.018 25.7798 159.018 26.1948C159.018 26.5854 158.945 26.9313 158.798 27.2324C158.652 27.5335 158.452 27.7899 158.2 28.0015C157.924 28.2375 157.582 28.4165 157.175 28.5386C156.776 28.6606 156.337 28.7257 155.856 28.7339H153.061ZM165.781 20.25V22.6792H169.956V36.583H165.781V39H176.901V36.583H172.897V20.25H165.781ZM179.697 32.2739V32.5303C179.697 33.4987 179.835 34.3898 180.112 35.2036C180.389 36.0174 180.791 36.7254 181.32 37.3276C181.841 37.9299 182.484 38.4019 183.249 38.7437C184.014 39.0854 184.881 39.2563 185.849 39.2563C186.809 39.2563 187.668 39.0854 188.425 38.7437C189.19 38.4019 189.833 37.9299 190.354 37.3276C190.874 36.7254 191.273 36.0174 191.55 35.2036C191.826 34.3898 191.965 33.4987 191.965 32.5303V32.2739C191.965 31.3136 191.826 30.4266 191.55 29.6128C191.273 28.7909 190.874 28.0788 190.354 27.4766C189.825 26.8743 189.178 26.4023 188.413 26.0605C187.656 25.7188 186.793 25.5479 185.825 25.5479C184.856 25.5479 183.994 25.7188 183.237 26.0605C182.48 26.4023 181.841 26.8743 181.32 27.4766C180.791 28.0788 180.389 28.7909 180.112 29.6128C179.835 30.4266 179.697 31.3136 179.697 32.2739ZM182.614 32.5303V32.2739C182.614 31.6961 182.675 31.1427 182.797 30.6138C182.928 30.0848 183.123 29.6209 183.383 29.2222C183.652 28.8234 183.986 28.506 184.384 28.27C184.791 28.034 185.271 27.916 185.825 27.916C186.386 27.916 186.866 28.034 187.265 28.27C187.672 28.506 188.006 28.8234 188.266 29.2222C188.527 29.6209 188.722 30.0848 188.852 30.6138C188.982 31.1427 189.047 31.6961 189.047 32.2739V32.5303C189.047 33.1243 188.982 33.6859 188.852 34.2148C188.73 34.7438 188.539 35.2077 188.278 35.6064C188.018 36.0052 187.684 36.3226 187.277 36.5586C186.87 36.7865 186.394 36.9004 185.849 36.9004C185.288 36.9004 184.803 36.7865 184.396 36.5586C183.99 36.3226 183.652 36.0052 183.383 35.6064C183.123 35.2077 182.928 34.7438 182.797 34.2148C182.675 33.6859 182.614 33.1243 182.614 32.5303ZM194.87 32.2983V32.5547C194.87 33.5068 194.992 34.3939 195.236 35.2158C195.489 36.0296 195.847 36.7336 196.311 37.3276C196.766 37.9299 197.32 38.4019 197.971 38.7437C198.622 39.0773 199.354 39.2441 200.168 39.2441C200.616 39.2441 201.031 39.1953 201.413 39.0977C201.796 39.0081 202.146 38.8739 202.463 38.6948C202.674 38.5809 202.87 38.4466 203.049 38.292C203.236 38.1374 203.415 37.9705 203.586 37.7915V38.707C203.586 39.2035 203.513 39.647 203.366 40.0376C203.228 40.4282 203.028 40.7578 202.768 41.0264C202.483 41.3031 202.137 41.5146 201.73 41.6611C201.332 41.8076 200.872 41.8809 200.351 41.8809C200.05 41.8809 199.753 41.8483 199.46 41.7832C199.167 41.7262 198.878 41.6326 198.593 41.5024C198.308 41.3722 198.028 41.2013 197.751 40.9897C197.482 40.7863 197.23 40.5422 196.994 40.2573L195.615 42.0273C195.908 42.418 196.258 42.7516 196.665 43.0283C197.071 43.305 197.499 43.5288 197.946 43.6997C198.394 43.8706 198.841 43.9967 199.289 44.0781C199.737 44.1595 200.148 44.2002 200.522 44.2002C201.409 44.2002 202.219 44.0741 202.951 43.8218C203.692 43.5776 204.326 43.2196 204.855 42.7476C205.376 42.2674 205.779 41.6815 206.064 40.9897C206.357 40.3062 206.503 39.5208 206.503 38.6338V25.792H203.854L203.732 27.1226C203.57 26.9272 203.395 26.7482 203.208 26.5854C203.02 26.4146 202.821 26.2681 202.609 26.146C202.284 25.9507 201.922 25.8042 201.523 25.7065C201.124 25.6007 200.681 25.5479 200.192 25.5479C199.37 25.5479 198.63 25.7147 197.971 26.0483C197.32 26.3739 196.762 26.8337 196.298 27.4277C195.843 28.0218 195.489 28.7339 195.236 29.564C194.992 30.3859 194.87 31.2974 194.87 32.2983ZM197.8 32.5547V32.2983C197.8 31.7043 197.861 31.1468 197.983 30.626C198.105 30.097 198.296 29.6331 198.557 29.2344C198.809 28.8356 199.13 28.5223 199.521 28.2944C199.912 28.0666 200.38 27.9526 200.925 27.9526C201.234 27.9526 201.519 27.9893 201.779 28.0625C202.04 28.1276 202.276 28.2212 202.487 28.3433C202.723 28.4735 202.931 28.6362 203.11 28.8315C203.297 29.0269 203.456 29.2466 203.586 29.4907V35.2769C203.456 35.5129 203.305 35.7285 203.134 35.9238C202.963 36.1191 202.768 36.286 202.548 36.4243C202.329 36.5545 202.08 36.6562 201.804 36.7295C201.535 36.8027 201.234 36.8394 200.9 36.8394C200.363 36.8394 199.899 36.7295 199.509 36.5098C199.118 36.2819 198.797 35.9686 198.544 35.5698C198.284 35.1873 198.093 34.7357 197.971 34.2148C197.857 33.694 197.8 33.1406 197.8 32.5547Z" fill="black"/>
</svg>
